<svg xmlns="http://www.w3.org/2000/svg" xmlns:xlink="http://www.w3.org/1999/xlink" width="849.56" height="849.276" viewBox="0 0 849.56 849.276"><defs><clipPath id="a"><rect width="849.56" height="849.276" fill="none"/></clipPath></defs><g transform="translate(0 0.005)"><g transform="translate(0 -0.005)" clip-path="url(#a)"><path d="M1017.621,492.837a4.3,4.3,0,1,0-.935,3.137,4.3,4.3,0,0,0,.935-3.137" transform="translate(-249.36 -120.833)" fill="#ff592a"/><path d="M994.222,493.838a6.118,6.118,0,0,1-5.47,6.7l-11.27,1.129a6.055,6.055,0,0,1-4.593-1.446l-14.95,1.5a4.581,4.581,0,1,1-.927-9.112l14.95-1.472a6.1,6.1,0,0,1,4.213-2.348l11.27-1.129a6.118,6.118,0,0,1,6.7,5.47l.076.749Z" transform="translate(-235.453 -120.501)" fill="#ff592a"/><path d="M958.034,503.353a4.581,4.581,0,0,1-.913-9.111" transform="translate(-235.547 -122.136)" fill="#ff592a"/><path d="M998.831,416.716a4.291,4.291,0,1,0,.174,1.665,4.3,4.3,0,0,0-.174-1.665" transform="translate(-244.758 -102.226)" fill="#ff592a"/><path d="M976.489,420.317a6.116,6.116,0,0,1-4.023,7.614l-10.825,3.452a6.105,6.105,0,0,1-4.8-.507l-14.327,4.391a4.584,4.584,0,1,1-2.716-8.757l14.328-4.454a6.089,6.089,0,0,1,3.655-3.135l10.825-3.35a6.1,6.1,0,0,1,7.614,4.023l.229.724Z" transform="translate(-231.452 -102.628)" fill="#ff592a"/><path d="M942.518,438.945a4.584,4.584,0,1,1-2.716-8.757" transform="translate(-231.452 -106.307)" fill="#ff592a"/><path d="M967.806,345.083a4.3,4.3,0,1,0,.341,3.269,4.3,4.3,0,0,0-.341-3.269" transform="translate(-237.172 -84.718)" fill="#ff592a"/><path d="M947.274,351.1a6.116,6.116,0,0,1-2.449,8.248l-9.949,5.406a6.056,6.056,0,0,1-4.81.431l-13.16,7.158a4.581,4.581,0,1,1-4.365-8.046l13.185-7.158a6.108,6.108,0,0,1,2.982-3.807l9.95-5.406a6.1,6.1,0,0,1,8.287,2.462l.368.66Z" transform="translate(-224.876 -85.794)" fill="#ff592a"/><path d="M916.905,377.956a4.581,4.581,0,1,1-4.365-8.046" transform="translate(-224.876 -91.411)" fill="#ff592a"/><path d="M925.424,279.812a4.283,4.283,0,1,0,.8,1.476,4.3,4.3,0,0,0-.8-1.476" transform="translate(-226.821 -68.763)" fill="#ff592a"/><path d="M907.531,287.891a6.092,6.092,0,0,1-.825,8.6l-8.757,7.208a6.13,6.13,0,0,1-4.632,1.345l-11.574,9.543a4.581,4.581,0,0,1-5.825-7.069l11.574-9.543a6.051,6.051,0,0,1,2.2-4.3l8.731-7.208a6.116,6.116,0,0,1,8.6.824l.483.6Z" transform="translate(-216.073 -70.445)" fill="#ff592a"/><path d="M881.744,321.961a4.584,4.584,0,1,1-5.838-7.069" transform="translate(-216.048 -77.814)" fill="#ff592a"/><path d="M872.844,222.467a4.3,4.3,0,1,0,1.545,2.906,4.3,4.3,0,0,0-1.545-2.906" transform="translate(-213.963 -54.731)" fill="#ff592a"/><path d="M858.149,232.318a6.116,6.116,0,0,1,.824,8.6l-7.208,8.731a6.048,6.048,0,0,1-4.289,2.2l-9.543,11.574a4.585,4.585,0,0,1-7.082-5.825l9.556-11.574a6.025,6.025,0,0,1,1.345-4.632l7.208-8.744a6.1,6.1,0,0,1,8.592-.825Z" transform="translate(-205.067 -56.941)" fill="#ff592a"/><path d="M837.894,272.34a4.581,4.581,0,1,1-7.069-5.825" transform="translate(-205.041 -65.859)" fill="#ff592a"/><path d="M811.357,174.477a4.274,4.274,0,1,0,1.294,1.068,4.3,4.3,0,0,0-1.294-1.068" transform="translate(-198.936 -42.984)" fill="#ff592a"/><path d="M800.442,185.708a6.117,6.117,0,0,1,2.45,8.287l-5.406,9.963a6.057,6.057,0,0,1-3.807,2.982l-7.119,13.185a4.591,4.591,0,0,1-8.072-4.378l7.158-13.186a6.118,6.118,0,0,1,.431-4.8l5.406-9.936a6.1,6.1,0,0,1,8.287-2.449l.672.355Z" transform="translate(-192.247 -45.624)" fill="#ff592a"/><path d="M786.559,230.337a4.591,4.591,0,0,1-8.072-4.378" transform="translate(-192.247 -55.837)" fill="#ff592a"/><path d="M754.35,143.529a4.3,4.3,0,1,0,2.067,2.556,4.3,4.3,0,0,0-2.067-2.556" transform="translate(-184.848 -35.336)" fill="#ff592a"/><path d="M743.427,154.8a6.116,6.116,0,0,1,2.449,8.287l-5.406,9.949a6.047,6.047,0,0,1-3.806,2.982L729.505,189.2a4.586,4.586,0,0,1-8.059-4.378L728.6,171.64a6.127,6.127,0,0,1,.431-4.8l5.406-9.962a6.118,6.118,0,0,1,8.287-2.449l.672.368Z" transform="translate(-178.151 -37.977)" fill="#ff592a"/><path d="M729.539,199.39a4.586,4.586,0,1,1-8.059-4.378" transform="translate(-178.159 -48.189)" fill="#ff592a"/><path d="M680.48,117.848a4.288,4.288,0,1,0,1.473.8,4.289,4.289,0,0,0-1.473-.8" transform="translate(-166.791 -29.072)" fill="#ff592a"/><path d="M673.788,130.04a6.116,6.116,0,0,1,4.022,7.615l-3.414,10.85a6,6,0,0,1-3.135,3.667L666.821,166.5a4.584,4.584,0,0,1-8.757-2.716l4.454-14.328a6.095,6.095,0,0,1-.52-4.8l3.363-10.812a6.1,6.1,0,0,1,7.615-4.023l.736.215Z" transform="translate(-162.574 -32.013)" fill="#ff592a"/><path d="M666.888,177.736a4.584,4.584,0,0,1-8.757-2.716" transform="translate(-162.591 -43.248)" fill="#ff592a"/><path d="M603.164,104.855a4.3,4.3,0,1,0,2.872,1.571,4.3,4.3,0,0,0-2.872-1.571" transform="translate(-147.877 -25.902)" fill="#ff592a"/><path d="M601.124,117.547a6.129,6.129,0,0,1,5.457,6.726l-1.142,11.269a6.1,6.1,0,0,1-2.347,4.213l-1.5,14.924a4.581,4.581,0,1,1-9.112-.926l1.5-14.924a6.12,6.12,0,0,1-1.459-4.594l1.142-11.269a6.1,6.1,0,0,1,6.688-5.47l.761.076Z" transform="translate(-146.408 -29.025)" fill="#ff592a"/><path d="M601.595,166.561a4.585,4.585,0,1,1-9.124-.914" transform="translate(-146.409 -40.932)" fill="#ff592a"/><path d="M524.819,104.587a4.28,4.28,0,1,0,1.665.151,4.289,4.289,0,0,0-1.665-.151" transform="translate(-128.746 -25.836)" fill="#ff592a"/><path d="M525.812,117.224a6.105,6.105,0,0,1,6.688,5.457l1.142,11.269a6.164,6.164,0,0,1-1.46,4.607l1.51,14.924a4.585,4.585,0,1,1-9.124.914l-1.51-14.963a6.068,6.068,0,0,1-2.335-4.213l-1.142-11.269a6.1,6.1,0,0,1,5.47-6.688l.762-.077Z" transform="translate(-128.394 -28.956)" fill="#ff592a"/><path d="M535.328,165.395a4.581,4.581,0,0,1-9.112.914" transform="translate(-130.042 -40.87)" fill="#ff592a"/><path d="M447.44,117.116a4.294,4.294,0,1,0,1.686-.2,4.29,4.29,0,0,0-1.686.2" transform="translate(-109.845 -28.886)" fill="#ff592a"/><path d="M451.018,129.1a6.1,6.1,0,0,1,7.614,4.023l3.363,10.813a6.042,6.042,0,0,1-.52,4.8l4.467,14.328a4.584,4.584,0,1,1-8.756,2.716l-4.442-14.327a6.039,6.039,0,0,1-3.134-3.668l-3.363-10.812a6.092,6.092,0,0,1,4.023-7.615l.736-.228Z" transform="translate(-110.212 -31.834)" fill="#ff592a"/><path d="M469.621,174.295a4.584,4.584,0,1,1-8.756,2.716" transform="translate(-113.892 -43.069)" fill="#ff592a"/><path d="M373.349,142.365a4.274,4.274,0,1,0,1.6-.5,4.3,4.3,0,0,0-1.6.5" transform="translate(-91.707 -35.048)" fill="#ff592a"/><path d="M379.327,153.237a6.116,6.116,0,0,1,8.274,2.449l5.406,9.962a6.083,6.083,0,0,1,.431,4.8l7.17,13.249a4.585,4.585,0,1,1-8.058,4.378l-7.158-13.262a6.051,6.051,0,0,1-3.807-2.982l-5.406-9.949a6.1,6.1,0,0,1,2.539-8.274l.672-.368Z" transform="translate(-92.786 -37.683)" fill="#ff592a"/><path d="M406.218,193.932a4.586,4.586,0,0,1-8.059,4.378" transform="translate(-98.395 -47.922)" fill="#ff592a"/><path d="M316.341,173.313a4.276,4.276,0,1,0,1.6-.5,4.306,4.306,0,0,0-1.6.5" transform="translate(-77.619 -42.696)" fill="#ff592a"/><path d="M322.312,184.182a6.105,6.105,0,0,1,8.287,2.449l5.406,9.962a6.067,6.067,0,0,1,.431,4.8l7.158,13.186a4.583,4.583,0,1,1-8.059,4.365l-7.158-13.185a6.057,6.057,0,0,1-3.807-2.982l-5.406-9.95a6.116,6.116,0,0,1,2.449-8.287l.672-.355Z" transform="translate(-78.691 -45.328)" fill="#ff592a"/><path d="M349.211,224.8a4.586,4.586,0,1,1-8.059,4.378" transform="translate(-84.308 -55.549)" fill="#ff592a"/><path d="M254.536,220.917a4.3,4.3,0,1,0,3.148-.961,4.312,4.312,0,0,0-3.148.961" transform="translate(-62.515 -54.348)" fill="#ff592a"/><path d="M262.69,230.271a6.118,6.118,0,0,1,8.6.825l7.208,8.744a6.131,6.131,0,0,1,1.345,4.607l9.543,11.56a4.584,4.584,0,1,1-7.068,5.838L272.754,250.3a6.075,6.075,0,0,1-4.289-2.2l-7.132-8.731a6.093,6.093,0,0,1,.812-8.592l.6-.495Z" transform="translate(-64.235 -56.557)" fill="#ff592a"/><path d="M296.742,264.964a4.581,4.581,0,0,1-7.068,5.825" transform="translate(-71.586 -65.476)" fill="#ff592a"/><path d="M254.536,220.917a4.3,4.3,0,1,0,3.148-.961,4.312,4.312,0,0,0-3.148.961" transform="translate(-62.515 -54.348)" fill="#ff592a"/><path d="M262.69,230.271a6.118,6.118,0,0,1,8.6.825l7.208,8.744a6.131,6.131,0,0,1,1.345,4.607l9.543,11.56a4.584,4.584,0,1,1-7.068,5.838L272.754,250.3a6.075,6.075,0,0,1-4.289-2.2l-7.132-8.731a6.093,6.093,0,0,1,.812-8.592l.6-.495Z" transform="translate(-64.235 -56.557)" fill="#ff592a"/><path d="M296.742,264.964a4.581,4.581,0,0,1-7.068,5.825" transform="translate(-71.586 -65.476)" fill="#ff592a"/><path d="M201.681,277.934a4.29,4.29,0,1,0,1.3-1.065,4.307,4.307,0,0,0-1.3,1.065" transform="translate(-49.598 -68.293)" fill="#ff592a"/><path d="M211.531,285.422a6.1,6.1,0,0,1,8.6-.825l8.731,7.208a6.034,6.034,0,0,1,2.2,4.29l11.573,9.543a4.581,4.581,0,0,1-5.825,7.068l-11.573-9.543a6.131,6.131,0,0,1-4.632-1.345l-8.744-7.145a6.118,6.118,0,0,1-.825-8.6l.5-.583Z" transform="translate(-51.808 -69.982)" fill="#ff592a"/><path d="M251.554,313a4.581,4.581,0,1,1-5.825,7.069" transform="translate(-60.726 -77.348)" fill="#ff592a"/><path d="M158.917,342.946a4.3,4.3,0,1,0,2.556-2.067,4.3,4.3,0,0,0-2.556,2.067" transform="translate(-39.143 -84.192)" fill="#ff592a"/><path d="M170.17,348.261a6.105,6.105,0,0,1,8.287-2.462l9.949,5.406a6.044,6.044,0,0,1,2.983,3.807l13.236,7.132a4.583,4.583,0,0,1-4.366,8.059l-13.186-7.158a6.156,6.156,0,0,1-4.809-.431l-9.949-5.406a6.1,6.1,0,0,1-2.462-8.287l.367-.66Z" transform="translate(-41.792 -85.269)" fill="#ff592a"/><path d="M214.849,367.753a4.583,4.583,0,0,1-4.366,8.059" transform="translate(-52.016 -90.878)" fill="#ff592a"/><path d="M127.455,414.4a4.265,4.265,0,1,0,.794-1.476,4.289,4.289,0,0,0-.794,1.476" transform="translate(-31.45 -101.656)" fill="#ff592a"/><path d="M139.65,417.264a6.118,6.118,0,0,1,7.615-4.035l10.825,3.363a6.091,6.091,0,0,1,3.654,3.135l14.328,4.441a4.584,4.584,0,0,1-2.716,8.757l-14.328-4.442a6.091,6.091,0,0,1-4.8.508l-10.813-3.363a6.092,6.092,0,0,1-4.023-7.615l.228-.724Z" transform="translate(-34.382 -102.051)" fill="#ff592a"/><path d="M187.342,427.862a4.581,4.581,0,1,1-2.716,8.744" transform="translate(-45.626 -105.732)" fill="#ff592a"/><path d="M108.192,490.423a4.289,4.289,0,1,0,1.563-2.871,4.293,4.293,0,0,0-1.563,2.871" transform="translate(-26.731 -120.246)" fill="#ff592a"/><path d="M120.875,490.649a6.091,6.091,0,0,1,6.688-5.47l11.27,1.129a6.079,6.079,0,0,1,4.213,2.347l14.924,1.51a4.581,4.581,0,1,1-.914,9.112l-14.924-1.51a6.068,6.068,0,0,1-4.607,1.46l-11.269-1.092a6.116,6.116,0,0,1-5.457-6.7l.076-.749Z" transform="translate(-29.845 -119.889)" fill="#ff592a"/><path d="M169.88,491.815a4.581,4.581,0,1,1-.914,9.111" transform="translate(-41.756 -121.536)" fill="#ff592a"/><path d="M101.549,558.824a4.276,4.276,0,1,0,1.392-2.96,4.287,4.287,0,0,0-1.392,2.96" transform="translate(-25.094 -137.089)" fill="#ff592a"/><path d="M114.305,558.271a6.092,6.092,0,0,1,6.364-5.831l11.316.481a6.082,6.082,0,0,1,4.3,2.1l15.024.637a4.585,4.585,0,0,1-.389,9.163l-14.986-.652a6.122,6.122,0,0,1-4.516,1.721L120.1,565.4a6.092,6.092,0,0,1-5.83-6.338l.032-.765Z" transform="translate(-28.239 -136.517)" fill="#ff592a"/><path d="M163.342,556.722a4.585,4.585,0,0,1-.389,9.163" transform="translate(-40.27 -137.577)" fill="#ff592a"/><path d="M108.026,633.3a4.3,4.3,0,1,0,.935-3.137,4.3,4.3,0,0,0-.935,3.137" transform="translate(-26.691 -155.331)" fill="#ff592a"/><path d="M120.631,630.484a6.118,6.118,0,0,1,5.47-6.7l11.269-1.129a6.055,6.055,0,0,1,4.594,1.446l14.924-1.5a4.581,4.581,0,1,1,.926,9.112l-14.936,1.51a6.078,6.078,0,0,1-4.213,2.347l-11.27,1.13a6.106,6.106,0,0,1-6.688-5.47Z" transform="translate(-29.803 -153.848)" fill="#ff592a"/><path d="M168.8,622.6a4.581,4.581,0,1,1,.926,9.112" transform="translate(-41.715 -153.848)" fill="#ff592a"/><path d="M108.026,633.3a4.3,4.3,0,1,0,.935-3.137,4.3,4.3,0,0,0-.935,3.137" transform="translate(-26.691 -155.331)" fill="#ff592a"/><path d="M120.631,630.484a6.118,6.118,0,0,1,5.47-6.7l11.269-1.129a6.055,6.055,0,0,1,4.594,1.446l14.924-1.5a4.581,4.581,0,1,1,.926,9.112l-14.936,1.51a6.078,6.078,0,0,1-4.213,2.347l-11.27,1.13a6.106,6.106,0,0,1-6.688-5.47Z" transform="translate(-29.803 -153.848)" fill="#ff592a"/><path d="M168.8,622.6a4.581,4.581,0,1,1,.926,9.112" transform="translate(-41.715 -153.848)" fill="#ff592a"/><path d="M126.968,709.388a4.314,4.314,0,1,0,.311-3.266,4.3,4.3,0,0,0-.311,3.266" transform="translate(-31.331 -173.929)" fill="#ff592a"/><path d="M138.943,702a6.117,6.117,0,0,1,4.023-7.615l10.826-3.35a6.1,6.1,0,0,1,4.8.507l14.315-4.454a4.586,4.586,0,1,1,2.728,8.757L161.3,700.278a6.14,6.14,0,0,1-3.668,3.134l-10.825,3.35a6.1,6.1,0,0,1-7.615-4.023l-.228-.724Z" transform="translate(-34.271 -169.743)" fill="#ff592a"/><path d="M184.154,687.04a4.581,4.581,0,1,1,2.716,8.744" transform="translate(-45.509 -169.717)" fill="#ff592a"/><path d="M158.145,780.959a4.29,4.29,0,1,0-.492-1.607,4.3,4.3,0,0,0,.492,1.607" transform="translate(-38.955 -191.426)" fill="#ff592a"/><path d="M169.006,769.364a6.1,6.1,0,0,1,2.411-8.287l9.949-5.406a6.156,6.156,0,0,1,4.809-.431l13.173-7.158a4.586,4.586,0,0,1,4.379,8.059L190.542,763.3a6.054,6.054,0,0,1-2.982,3.807l-9.95,5.406a6.116,6.116,0,0,1-8.287-2.449l-.368-.672Z" transform="translate(-41.58 -184.729)" fill="#ff592a"/><path d="M209.641,748.081a4.583,4.583,0,0,1,4.365,8.059" transform="translate(-51.808 -184.73)" fill="#ff592a"/><path d="M200.656,846.153a4.3,4.3,0,1,0-.955-3.141,4.287,4.287,0,0,0,.955,3.141" transform="translate(-49.347 -207.368)" fill="#ff592a"/><path d="M210.008,830.865a6.117,6.117,0,0,1,.825-8.6l8.744-7.209a6.031,6.031,0,0,1,4.632-1.345l11.56-9.556a4.584,4.584,0,1,1,5.838,7.069l-11.574,9.555a6.1,6.1,0,0,1-2.2,4.29l-8.744,7.208a6.115,6.115,0,0,1-8.6-.825Z" transform="translate(-51.554 -198.464)" fill="#ff592a"/><path d="M244.685,804.152a4.584,4.584,0,1,1,5.837,7.069" transform="translate(-60.468 -198.464)" fill="#ff592a"/><path d="M253.343,903.374a4.3,4.3,0,1,0-1.538-2.9,4.29,4.29,0,0,0,1.538,2.9" transform="translate(-62.222 -221.365)" fill="#ff592a"/><path d="M260.828,884.977a6.116,6.116,0,0,1-.824-8.6l7.208-8.731a6.115,6.115,0,0,1,4.289-2.208l9.556-11.574a4.584,4.584,0,0,1,7.069,5.838l-9.556,11.574a6.038,6.038,0,0,1-1.345,4.632l-7.209,8.731a6.1,6.1,0,0,1-8.591.825Z" transform="translate(-63.909 -210.596)" fill="#ff592a"/><path d="M288.426,853.86a4.584,4.584,0,0,1,7.069,5.838" transform="translate(-71.278 -210.596)" fill="#ff592a"/><path d="M314.993,951.24a4.285,4.285,0,1,0-1.293-1.069,4.3,4.3,0,0,0,1.293,1.069" transform="translate(-77.286 -233.075)" fill="#ff592a"/><path d="M320.227,930.412a6.1,6.1,0,0,1-2.462-8.287l5.406-9.962a6.1,6.1,0,0,1,3.807-2.982l7.132-13.135a4.583,4.583,0,0,1,8.059,4.365L335.012,913.6a6.014,6.014,0,0,1-.431,4.8l-5.406,9.962a6.1,6.1,0,0,1-8.287,2.45l-.66-.355Z" transform="translate(-78.345 -220.839)" fill="#ff592a"/><path d="M339.736,896.017a4.581,4.581,0,1,1,8.046,4.378" transform="translate(-83.958 -220.81)" fill="#ff592a"/><path d="M371.919,982.188a4.3,4.3,0,1,0-2.067-2.555,4.305,4.305,0,0,0,2.067,2.555" transform="translate(-91.356 -240.724)" fill="#ff592a"/><path d="M377.235,961.332a6.093,6.093,0,0,1-2.462-8.274l5.406-9.962a6.1,6.1,0,0,1,3.807-2.982l7.145-13.186a4.586,4.586,0,0,1,8.059,4.379l-7.158,13.185a6.016,6.016,0,0,1-.431,4.8l-5.406,9.962a6.116,6.116,0,0,1-8.287,2.449l-.66-.368Z" transform="translate(-92.433 -228.472)" fill="#ff592a"/><path d="M396.744,926.9a4.581,4.581,0,1,1,8.046,4.378" transform="translate(-98.046 -228.441)" fill="#ff592a"/><path d="M445.866,1007.735a4.315,4.315,0,1,0-2.524-2.107,4.306,4.306,0,0,0,2.524,2.107" transform="translate(-109.439 -246.955)" fill="#ff592a"/><path d="M448.737,985.176a6.117,6.117,0,0,1-4.023-7.615l3.363-10.813a6.029,6.029,0,0,1,3.134-3.667l4.442-14.328a4.584,4.584,0,0,1,8.757,2.716L459.955,965.8a6.1,6.1,0,0,1,.52,4.8l-3.363,10.825a6.117,6.117,0,0,1-7.614,4.023l-.723-.229Z" transform="translate(-109.835 -233.661)" fill="#ff592a"/><path d="M459.331,948.7a4.584,4.584,0,1,1,8.756,2.716" transform="translate(-113.513 -233.648)" fill="#ff592a"/><path d="M523.207,1020.557a4.315,4.315,0,1,0-2.868-1.574,4.3,4.3,0,0,0,2.868,1.574" transform="translate(-128.352 -250.083)" fill="#ff592a"/><path d="M523.432,997.08a6.118,6.118,0,0,1-5.47-6.7l1.142-11.269a6.068,6.068,0,0,1,2.335-4.214l1.51-14.924a4.581,4.581,0,1,1,9.111.914l-1.5,14.937a6.052,6.052,0,0,1,1.447,4.594l-1.129,11.269a6.117,6.117,0,0,1-6.688,5.47Z" transform="translate(-127.994 -236.174)" fill="#ff592a"/><path d="M524.6,960.021a4.585,4.585,0,1,1,9.124.914" transform="translate(-129.642 -236.222)" fill="#ff592a"/><path d="M523.207,1020.557a4.315,4.315,0,1,0-2.868-1.574,4.3,4.3,0,0,0,2.868,1.574" transform="translate(-128.352 -250.083)" fill="#ff592a"/><path d="M523.432,997.08a6.118,6.118,0,0,1-5.47-6.7l1.142-11.269a6.068,6.068,0,0,1,2.335-4.214l1.51-14.924a4.581,4.581,0,1,1,9.111.914l-1.5,14.937a6.052,6.052,0,0,1,1.447,4.594l-1.129,11.269a6.117,6.117,0,0,1-6.688,5.47Z" transform="translate(-127.994 -236.174)" fill="#ff592a"/><path d="M524.6,960.021a4.585,4.585,0,1,1,9.124.914" transform="translate(-129.642 -236.222)" fill="#ff592a"/><path d="M601.56,1020.632a4.271,4.271,0,1,0-1.664-.15,4.291,4.291,0,0,0,1.664.15" transform="translate(-147.491 -250.107)" fill="#ff592a"/><path d="M598.733,997.289a6.118,6.118,0,0,1-6.689-5.47L590.9,980.55a6.12,6.12,0,0,1,1.46-4.607l-1.51-14.924a4.585,4.585,0,0,1,9.125-.914l1.5,14.924a6.078,6.078,0,0,1,2.347,4.213l1.142,11.27a6.106,6.106,0,0,1-5.47,6.688Z" transform="translate(-146.009 -236.243)" fill="#ff592a"/><path d="M590.852,961.019a4.585,4.585,0,0,1,9.125-.914" transform="translate(-146.009 -236.243)" fill="#ff592a"/><path d="M678.923,1007.97a4.315,4.315,0,1,0-3.273-.306,4.3,4.3,0,0,0,3.273.306" transform="translate(-166.402 -247.013)" fill="#ff592a"/><path d="M671.493,985.632a6.1,6.1,0,0,1-7.615-4.023l-3.363-10.826a6.064,6.064,0,0,1,.507-4.784l-4.441-14.328a4.584,4.584,0,0,1,8.757-2.716l4.441,14.328a6.091,6.091,0,0,1,3.135,3.654l3.363,10.825a6.105,6.105,0,0,1-4.023,7.615l-.736.228Z" transform="translate(-162.207 -233.711)" fill="#ff592a"/><path d="M656.581,951.656a4.584,4.584,0,0,1,8.757-2.716" transform="translate(-162.207 -233.707)" fill="#ff592a"/><path d="M752.937,982.574a4.3,4.3,0,1,0-3.269.34,4.308,4.308,0,0,0,3.269-.34" transform="translate(-184.501 -240.817)" fill="#ff592a"/><path d="M741.342,962.151a6.116,6.116,0,0,1-8.287-2.449l-5.343-10.025a6.135,6.135,0,0,1-.431-4.8L720.1,931.693a4.585,4.585,0,1,1,8.058-4.378l7.17,13.186a6.1,6.1,0,0,1,3.807,2.982l5.394,9.962a6.091,6.091,0,0,1-2.45,8.274l-.672.368Z" transform="translate(-177.817 -228.568)" fill="#ff592a"/><path d="M720.1,931.693a4.585,4.585,0,1,1,8.058-4.378" transform="translate(-177.817 -228.568)" fill="#ff592a"/><path d="M809.945,951.626a4.3,4.3,0,1,0-3.269.341,4.3,4.3,0,0,0,3.269-.341" transform="translate(-198.589 -233.169)" fill="#ff592a"/><path d="M798.338,931.143a6.105,6.105,0,0,1-8.287-2.449l-5.406-9.962a6.117,6.117,0,0,1-.431-4.8l-7.158-13.185a4.582,4.582,0,1,1,8.058-4.366l7.158,13.186a6.1,6.1,0,0,1,3.807,2.982l5.394,9.949a6.105,6.105,0,0,1-2.449,8.287l-.673.355Z" transform="translate(-191.894 -220.923)" fill="#ff592a"/><path d="M777.055,900.746a4.585,4.585,0,0,1,8.058-4.379" transform="translate(-191.893 -220.92)" fill="#ff592a"/><path d="M809.945,951.626a4.3,4.3,0,1,0-3.269.341,4.3,4.3,0,0,0,3.269-.341" transform="translate(-198.589 -233.169)" fill="#ff592a"/><path d="M798.338,931.143a6.105,6.105,0,0,1-8.287-2.449l-5.406-9.962a6.117,6.117,0,0,1-.431-4.8l-7.158-13.185a4.582,4.582,0,1,1,8.058-4.366l7.158,13.186a6.1,6.1,0,0,1,3.807,2.982l5.394,9.949a6.105,6.105,0,0,1-2.449,8.287l-.673.355Z" transform="translate(-191.894 -220.923)" fill="#ff592a"/><path d="M777.055,900.746a4.585,4.585,0,0,1,8.058-4.379" transform="translate(-191.893 -220.92)" fill="#ff592a"/><path d="M871.6,903.9a4.3,4.3,0,1,0-3.148.961,4.3,4.3,0,0,0,3.148-.961" transform="translate(-213.659 -221.497)" fill="#ff592a"/><path d="M856.3,885.915a6.117,6.117,0,0,1-8.6-.825l-7.209-8.744a6.111,6.111,0,0,1-1.345-4.619L829.6,860.153a4.584,4.584,0,0,1,7.069-5.838l9.543,11.574a6.05,6.05,0,0,1,4.29,2.208l7.208,8.731a6.1,6.1,0,0,1-.812,8.6Z" transform="translate(-204.757 -210.708)" fill="#ff592a"/><path d="M829.6,860.22a4.584,4.584,0,1,1,7.069-5.837" transform="translate(-204.757 -210.725)" fill="#ff592a"/><path d="M924.391,846.777a4.286,4.286,0,1,0-1.3,1.061,4.287,4.287,0,0,0,1.3-1.061" transform="translate(-226.563 -207.523)" fill="#ff592a"/><path d="M905.979,832.077a6.117,6.117,0,0,1-8.6.825l-8.744-7.209a6.1,6.1,0,0,1-2.2-4.289L874.81,811.86a4.584,4.584,0,0,1,5.838-7.069l11.574,9.543a6.042,6.042,0,0,1,4.632,1.345l8.731,7.208a6.116,6.116,0,0,1,.825,8.6l-.482.583Z" transform="translate(-215.777 -198.622)" fill="#ff592a"/><path d="M874.81,811.844a4.584,4.584,0,1,1,5.838-7.069" transform="translate(-215.777 -198.618)" fill="#ff592a"/><path d="M967.1,781.675a4.3,4.3,0,1,0-2.556,2.067,4.307,4.307,0,0,0,2.556-2.067" transform="translate(-236.999 -191.597)" fill="#ff592a"/><path d="M946.118,770.712a6.116,6.116,0,0,1-8.287,2.462l-9.949-5.406a6.109,6.109,0,0,1-2.983-3.807L911.714,756.8a4.581,4.581,0,1,1,4.365-8.046l13.186,7.158a6.037,6.037,0,0,1,4.809.431l9.95,5.406a6.105,6.105,0,0,1,2.462,8.274l-.368.672Z" transform="translate(-224.672 -184.872)" fill="#ff592a"/><path d="M911.771,756.849a4.583,4.583,0,1,1,4.365-8.059" transform="translate(-224.729 -184.905)" fill="#ff592a"/><path d="M998.351,710.165a4.269,4.269,0,1,0-.794,1.476,4.289,4.289,0,0,0,.794-1.476" transform="translate(-244.646 -174.123)" fill="#ff592a"/><path d="M975.748,703.476a6.116,6.116,0,0,1-7.615,4.023l-10.825-3.35a6.092,6.092,0,0,1-3.654-3.134l-14.328-4.455a4.581,4.581,0,1,1,2.716-8.744l14.328,4.442a6.087,6.087,0,0,1,4.8-.507l10.813,3.363A6.091,6.091,0,0,1,976,702.727l-.215.724Z" transform="translate(-231.294 -169.909)" fill="#ff592a"/><path d="M939.329,696.574a4.584,4.584,0,1,1,2.716-8.757" transform="translate(-231.335 -169.923)" fill="#ff592a"/><path d="M1017.5,634.1a4.3,4.3,0,1,0-1.57,2.872,4.3,4.3,0,0,0,1.57-2.872" transform="translate(-249.332 -155.518)" fill="#ff592a"/><path d="M993.985,632.052a6.1,6.1,0,0,1-6.688,5.47l-11.269-1.129a6.108,6.108,0,0,1-4.226-2.347l-14.924-1.485a4.581,4.581,0,1,1,.926-9.112l14.924,1.5a6.089,6.089,0,0,1,4.594-1.447l11.269,1.129a6.1,6.1,0,0,1,5.47,6.688l-.076.761Z" transform="translate(-235.419 -154.057)" fill="#ff592a"/><path d="M956.878,632.56a4.581,4.581,0,1,1,.926-9.112" transform="translate(-235.419 -154.057)" fill="#ff592a"/><path d="M1024.053,565.656a4.277,4.277,0,1,0-1.207,3.047,4.277,4.277,0,0,0,1.207-3.047" transform="translate(-250.944 -138.732)" fill="#ff592a"/><path d="M1000.561,565.61a6.1,6.1,0,0,1-5.985,6.22l-11.323.232a6.1,6.1,0,0,1-4.477-1.823l-15,.306a4.586,4.586,0,1,1-.175-9.17l15-.293a6.083,6.083,0,0,1,4.385-2l11.325-.219a6.092,6.092,0,0,1,6.233,5.983Z" transform="translate(-237.02 -138.105)" fill="#ff592a"/><path d="M963.78,571.37a4.586,4.586,0,1,1-.175-9.17" transform="translate(-237.02 -138.93)" fill="#ff592a"/><path d="M1120.34,497.23a4.209,4.209,0,0,0-7.423-2.325,4.157,4.157,0,0,0-.956,2.25,4.212,4.212,0,0,0,8.206,1.712,4.157,4.157,0,0,0,.173-1.637" transform="translate(-274.788 -121.927)" fill="#0078e1"/><path d="M1097.344,498.078a6,6,0,0,1-5.443,6.52l-11.082.985a5.948,5.948,0,0,1-4.51-1.472l-14.658,1.372a4.553,4.553,0,0,1-1.777-.159,4.534,4.534,0,0,1-2.7-2.21,4.5,4.5,0,0,1-.309-3.474,4.436,4.436,0,0,1,.866-1.553,4.5,4.5,0,0,1,3.117-1.567l14.666-1.309a6.026,6.026,0,0,1,1.852-1.559,5.955,5.955,0,0,1,2.311-.7l11.082-1a6.012,6.012,0,0,1,6.52,5.435v.748Z" transform="translate(-261.127 -121.566)" fill="#0078e1"/><path d="M1061.658,506.987a4.481,4.481,0,0,1-4.946-4.07,4.36,4.36,0,0,1,.188-1.761,4.458,4.458,0,0,1,2.244-2.651,4.464,4.464,0,0,1,1.7-.48" transform="translate(-261.136 -123.071)" fill="#0078e1"/><path d="M1106.615,422.952a4.206,4.206,0,0,0-3.546-3.078,4.222,4.222,0,0,0-3.855,6.794,4.223,4.223,0,0,0,7.4-3.716" transform="translate(-271.422 -103.75)" fill="#0078e1"/><path d="M1084.445,426.061a6,6,0,0,1-4.186,7.379l-10.728,2.942a5.988,5.988,0,0,1-4.69-.66l-14.207,3.9a4.519,4.519,0,0,1-3.433-.436,4.466,4.466,0,0,1-1.333-1.157,4.49,4.49,0,0,1-.911-3.339,4.519,4.519,0,0,1,3.3-3.793l14.207-3.9a6.045,6.045,0,0,1,3.742-2.966l10.729-2.941a6,6,0,0,1,6.324,2.107,6.059,6.059,0,0,1,1.047,2.093l.2.723Z" transform="translate(-258.227 -104.005)" fill="#0078e1"/><path d="M1050.632,442.912a4.517,4.517,0,0,1-3.433-.431,4.447,4.447,0,0,1-1.333-1.156,4.351,4.351,0,0,1-.791-1.579,4.481,4.481,0,0,1-.128-1.76,4.513,4.513,0,0,1,3.29-3.8" transform="translate(-258.225 -107.295)" fill="#0078e1"/><path d="M1083.979,351.02a4.141,4.141,0,0,0-1.649-1.805,4.206,4.206,0,1,0,1.649,1.805" transform="translate(-265.9 -86.15)" fill="#0078e1"/><path d="M1063.282,356.274a6.019,6.019,0,0,1-2.853,8l-10.043,4.774a5.967,5.967,0,0,1-4.735.161l-13.311,6.333a4.524,4.524,0,0,1-1.709.427,4.469,4.469,0,0,1-1.731-.258,4.475,4.475,0,0,1-2.982-4.017,4.493,4.493,0,0,1,1.159-3.245,4.523,4.523,0,0,1,1.408-1.046l13.3-6.32a5.894,5.894,0,0,1,1.2-2.1,5.962,5.962,0,0,1,1.927-1.461l10.051-4.76a6,6,0,0,1,8,2.841l.316.673Z" transform="translate(-253.529 -87.028)" fill="#0078e1"/><path d="M1032.354,380.529a4.5,4.5,0,0,1-3.862-8.127" transform="translate(-253.544 -92.026)" fill="#0078e1"/><path d="M1056.657,293.466a4.267,4.267,0,0,0-1.649-1.819,4.226,4.226,0,1,0-.361,7.44,4.123,4.123,0,0,0,1.325-.978,4.2,4.2,0,0,0,.851-1.414,4.152,4.152,0,0,0,.241-1.632,4.2,4.2,0,0,0-.406-1.6" transform="translate(-259.138 -71.921)" fill="#0078e1"/><path d="M1035.97,298.723a6.014,6.014,0,0,1-2.838,8l-10.058,4.762a5.955,5.955,0,0,1-4.728.174l-13.311,6.32a4.5,4.5,0,0,1-3.862-8.127l13.311-6.32a5.889,5.889,0,0,1,1.2-2.106,5.955,5.955,0,0,1,1.935-1.459l10.043-4.774a6,6,0,0,1,6.6.974,6.082,6.082,0,0,1,1.393,1.881Z" transform="translate(-246.793 -72.804)" fill="#0078e1"/><path d="M1005,322.982a4.5,4.5,0,1,1-3.862-8.126" transform="translate(-246.76 -77.805)" fill="#0078e1"/><path d="M1015.768,230.38a4.224,4.224,0,0,0-7.31,4.157,4.225,4.225,0,0,0,6.3,1.726,4.285,4.285,0,0,0,1.137-1.194,4.19,4.19,0,0,0,.587-1.537,4.049,4.049,0,0,0-.045-1.647,4.119,4.119,0,0,0-.67-1.5" transform="translate(-249.125 -56.487)" fill="#0078e1"/><path d="M997.08,237.566a6.009,6.009,0,0,1,.181,6.666,6.065,6.065,0,0,1-1.611,1.7l-9.087,6.469a5.943,5.943,0,0,1-4.637.984l-12.028,8.5a4.5,4.5,0,1,1-5.2-7.341l12.04-8.513a5.96,5.96,0,0,1,2.493-4.038l9.086-6.419a5.986,5.986,0,0,1,8.361,1.433l.429.611Z" transform="translate(-237.905 -57.94)" fill="#0078e1"/><path d="M969.9,268.407a4.5,4.5,0,1,1-5.2-7.341" transform="translate(-237.905 -64.512)" fill="#0078e1"/><path d="M967.611,172.915a4.224,4.224,0,1,0,1.235,2.985,4.221,4.221,0,0,0-1.235-2.985" transform="translate(-237.338 -42.421)" fill="#0078e1"/><path d="M951.546,181.759a6.009,6.009,0,0,1,0,8.488l-7.865,7.865a5.983,5.983,0,0,1-4.413,1.745L928.86,210.278a4.5,4.5,0,0,1-6.369-6.357l10.42-10.42a5.979,5.979,0,0,1,1.745-4.4l7.865-7.877a6.021,6.021,0,0,1,8.489,0Z" transform="translate(-227.655 -44.349)" fill="#0078e1"/><path d="M928.882,218.3a4.5,4.5,0,0,1-6.357-6.357" transform="translate(-227.689 -52.373)" fill="#0078e1"/><path d="M912.71,121.711a4.212,4.212,0,1,0,1.135,1.193,4.226,4.226,0,0,0-1.135-1.193" transform="translate(-223.906 -29.882)" fill="#0078e1"/><path d="M899.657,131.963a5.995,5.995,0,0,1,1.434,8.364l-6.419,9.087a5.95,5.95,0,0,1-4.038,2.492l-8.5,12.028a4.5,4.5,0,0,1-7.354-5.2l8.5-12.029a6.054,6.054,0,0,1,.985-4.636l6.419-9.086a6.01,6.01,0,0,1,8.352-1.458l.611.436Z" transform="translate(-215.976 -32.232)" fill="#0078e1"/><path d="M882.093,173.188a4.5,4.5,0,1,1-7.342-5.2" transform="translate(-215.95 -41.511)" fill="#0078e1"/><path d="M860.692,84.942a4.208,4.208,0,1,0,1.136,1.194,4.224,4.224,0,0,0-1.136-1.194" transform="translate(-211.051 -20.795)" fill="#0078e1"/><path d="M847.609,95.176a6.007,6.007,0,0,1,1.433,8.376l-6.419,9.074a5.985,5.985,0,0,1-4.038,2.493l-8.526,12.015a4.5,4.5,0,1,1-7.341-5.2l8.5-12.028a5.947,5.947,0,0,1,.985-4.637l6.419-9.086a6,6,0,0,1,8.364-1.433l.611.424Z" transform="translate(-203.091 -23.139)" fill="#0078e1"/><path d="M830.082,136.418a4.5,4.5,0,0,1-7.354-5.2" transform="translate(-203.113 -32.424)" fill="#0078e1"/><path d="M794.1,50.031a4.226,4.226,0,1,0,2.166,2.4,4.224,4.224,0,0,0-2.166-2.4" transform="translate(-194.75 -12.259)" fill="#0078e1"/><path d="M784.487,61.387a5.993,5.993,0,0,1,2.841,7.989l-4.773,10.058A5.944,5.944,0,0,1,779,82.551l-6.319,13.312A4.5,4.5,0,1,1,764.557,92l6.369-13.312a5.948,5.948,0,0,1,.163-4.724L775.861,63.9a6,6,0,0,1,7.94-2.817l.686.324Z" transform="translate(-188.828 -14.953)" fill="#0078e1"/><path d="M772.687,106.195a4.5,4.5,0,0,1-8.139-3.864" transform="translate(-188.832 -25.285)" fill="#0078e1"/><path d="M723.6,23.543a4.217,4.217,0,1,0,1.474.736,4.225,4.225,0,0,0-1.474-.736" transform="translate(-177.498 -5.777)" fill="#0078e1"/><path d="M717.766,35.654a6,6,0,0,1,4.2,7.379l-2.942,10.719a5.98,5.98,0,0,1-2.966,3.739l-3.9,14.21a4.522,4.522,0,0,1-8.725-2.381l3.9-14.21a6.022,6.022,0,0,1-.66-4.7l2.954-10.719a5.983,5.983,0,0,1,7.366-4.2l.723.2Z" transform="translate(-173.797 -8.714)" fill="#0078e1"/><path d="M712.157,82.826a4.522,4.522,0,0,1-8.725-2.381" transform="translate(-173.797 -19.876)" fill="#0078e1"/><path d="M650.079,5.725a4.209,4.209,0,1,0,1.579.462,4.218,4.218,0,0,0-1.579-.462" transform="translate(-159.519 -1.407)" fill="#0078e1"/><path d="M648.253,18.2a6.009,6.009,0,0,1,5.435,6.519L652.7,35.8a6.008,6.008,0,0,1-2.268,4.163l-1.309,14.671a4.5,4.5,0,1,1-8.961-.8l1.308-14.683a5.928,5.928,0,0,1-1.47-4.5l.984-11.081a6.009,6.009,0,0,1,6.519-5.434Z" transform="translate(-158.155 -4.473)" fill="#0078e1"/><path d="M649.179,66.343a4.5,4.5,0,1,1-8.961-.8" transform="translate(-158.208 -16.194)" fill="#0078e1"/><path d="M586.613.012a4.225,4.225,0,1,0,2.863,1.5,4.233,4.233,0,0,0-2.863-1.5" transform="translate(-143.829 0.005)" fill="#0078e1"/><path d="M584.8,12.5A5.983,5.983,0,0,1,590.231,19l-.985,11.081a5.957,5.957,0,0,1-2.256,4.15l-1.321,14.683a4.5,4.5,0,0,1-8.962-.81l1.321-14.67a5.966,5.966,0,0,1-1.483-4.5l1-11.081a5.994,5.994,0,0,1,6.506-5.447l.748.075Z" transform="translate(-142.473 -3.057)" fill="#0078e1"/><path d="M585.726,60.66a4.5,4.5,0,0,1-8.962-.81" transform="translate(-142.53 -14.787)" fill="#0078e1"/><path d="M511.083,2.3a4.225,4.225,0,1,0,3.078.968,4.225,4.225,0,0,0-3.078-.968" transform="translate(-125.348 -0.56)" fill="#0078e1"/><path d="M511.919,14.712a5.983,5.983,0,0,1,6.506,5.434l1,11.081a5.962,5.962,0,0,1-1.483,4.5l1.321,14.67a4.5,4.5,0,0,1-8.962.811l-1.321-14.683a5.99,5.99,0,0,1-2.256-4.213l-.985-11.081a6,6,0,0,1,5.434-6.506h.748Z" transform="translate(-124.975 -3.626)" fill="#0078e1"/><path d="M520.766,62.135a4.5,4.5,0,0,1-8.962.8" transform="translate(-126.48 -15.351)" fill="#0078e1"/><path d="M436.333,13.412a4.225,4.225,0,1,0,3.2.4,4.224,4.224,0,0,0-3.2-.4" transform="translate(-107.061 -3.274)" fill="#0078e1"/><path d="M439.459,25.311a6,6,0,0,1,7.379,4.188l2.941,10.731a5.932,5.932,0,0,1-.648,4.687l3.9,14.209a4.522,4.522,0,1,1-8.725,2.381l-3.864-14.159a5.971,5.971,0,0,1-2.954-3.74l-2.954-10.731a5.995,5.995,0,0,1,4.2-7.366Z" transform="translate(-107.332 -6.198)" fill="#0078e1"/><path d="M456.31,70.3a4.524,4.524,0,0,1-8.725,2.393" transform="translate(-110.61 -17.368)" fill="#0078e1"/><path d="M374.919,30.281a4.2,4.2,0,1,0,1.641-.124,4.211,4.211,0,0,0-1.641.124" transform="translate(-91.889 -7.441)" fill="#0078e1"/><path d="M378.013,42.165a6.009,6.009,0,0,1,7.379,4.2L388.346,57.1a5.983,5.983,0,0,1-.66,4.686l3.9,14.21a4.522,4.522,0,1,1-8.725,2.381l-3.9-14.209a5.971,5.971,0,0,1-2.954-3.74l-2.941-10.731a6.008,6.008,0,0,1,4.188-7.379l.723-.2Z" transform="translate(-92.141 -10.364)" fill="#0078e1"/><path d="M394.873,87.167a4.524,4.524,0,1,1-8.725,2.393" transform="translate(-95.427 -21.537)" fill="#0078e1"/><path d="M305.96,60.941a4.225,4.225,0,1,0,3.223-.164,4.216,4.216,0,0,0-3.223.164" transform="translate(-75.018 -14.956)" fill="#0078e1"/><path d="M311.231,71.96a6,6,0,0,1,7.99,2.842l4.749,10.046a5.989,5.989,0,0,1,.175,4.737l6.319,13.312a4.505,4.505,0,0,1-8.139,3.865l-6.319-13.312a6.011,6.011,0,0,1-3.553-3.129l-4.686-10.046a6.02,6.02,0,0,1,2.841-8l.686-.312Z" transform="translate(-75.914 -17.636)" fill="#0078e1"/><path d="M335.465,113.241a4.5,4.5,0,1,1-8.139,3.864" transform="translate(-80.891 -27.981)" fill="#0078e1"/><path d="M241.561,99.61a4.226,4.226,0,1,0,3.15-.711,4.218,4.218,0,0,0-3.15.711" transform="translate(-59.254 -24.422)" fill="#0078e1"/><path d="M248.746,109.42a6,6,0,0,1,8.364,1.446l6.419,9.074a6.061,6.061,0,0,1,.985,4.637l8.5,12.028a4.5,4.5,0,1,1-7.354,5.2l-8.5-12.028a5.955,5.955,0,0,1-4.038-2.493l-6.432-9.086a6.008,6.008,0,0,1,1.446-8.364l.611-.436Z" transform="translate(-60.693 -26.765)" fill="#0078e1"/><path d="M279.6,145.9a4.5,4.5,0,0,1-1.043,6.328,4.5,4.5,0,0,1-3.395.75,4.486,4.486,0,0,1-2.916-1.893" transform="translate(-67.279 -36.053)" fill="#0078e1"/><path d="M182.471,145.848a4.226,4.226,0,1,0,2.985-1.235,4.224,4.224,0,0,0-2.985,1.235" transform="translate(-44.787 -35.734)" fill="#0078e1"/><path d="M191.319,154.154a6.007,6.007,0,0,1,8.488,0l7.877,7.877a5.982,5.982,0,0,1,1.745,4.4l10.42,10.409a4.5,4.5,0,0,1-6.369,6.369l-10.42-10.421a5.952,5.952,0,0,1-4.4-1.745l-7.865-7.865a6.009,6.009,0,0,1,0-8.488Z" transform="translate(-46.717 -37.658)" fill="#0078e1"/><path d="M227.872,184.877a4.5,4.5,0,0,1-6.369,6.357" transform="translate(-54.739 -45.684)" fill="#0078e1"/><path d="M137.424,190.9a4.226,4.226,0,1,0,2.985-1.235,4.226,4.226,0,0,0-2.985,1.235" transform="translate(-33.654 -46.866)" fill="#0078e1"/><path d="M146.271,199.2a6.007,6.007,0,0,1,8.488,0l7.878,7.877a5.985,5.985,0,0,1,1.744,4.4L174.8,221.886a4.5,4.5,0,0,1-6.369,6.369l-10.421-10.419a5.968,5.968,0,0,1-4.4-1.745l-7.865-7.866a6.006,6.006,0,0,1,0-8.487Z" transform="translate(-35.584 -48.79)" fill="#0078e1"/><path d="M182.824,229.925a4.5,4.5,0,1,1-6.369,6.356" transform="translate(-43.607 -56.817)" fill="#0078e1"/><path d="M92.578,251.075a4.216,4.216,0,1,0,1.194-1.135,4.224,4.224,0,0,0-1.194,1.135" transform="translate(-22.686 -61.602)" fill="#0078e1"/><path d="M102.8,257.7a6.008,6.008,0,0,1,8.376-1.433l9.074,6.419a5.985,5.985,0,0,1,2.493,4.038l11.978,8.5a4.5,4.5,0,0,1-5.2,7.354l-12.029-8.5a5.947,5.947,0,0,1-4.636-.985l-9.086-6.419a6,6,0,0,1-1.433-8.364l.424-.611Z" transform="translate(-25.018 -63.053)" fill="#0078e1"/><path d="M144,281.826a4.5,4.5,0,0,1-5.2,7.341" transform="translate(-34.303 -69.643)" fill="#0078e1"/><path d="M55.466,316.447a4.224,4.224,0,1,0,2.4-2.166,4.225,4.225,0,0,0-2.4,2.166" transform="translate(-13.606 -77.603)" fill="#0078e1"/><path d="M66.809,321.016a6,6,0,0,1,7.989-2.841l10.058,4.774a5.919,5.919,0,0,1,3.116,3.59l13.312,6.232a4.5,4.5,0,0,1-3.864,8.127l-13.312-6.27a5.986,5.986,0,0,1-4.736-.163l-10.046-4.774a5.993,5.993,0,0,1-2.841-7.99Z" transform="translate(-16.287 -78.482)" fill="#0078e1"/><path d="M111.631,337.751a4.505,4.505,0,0,1-3.865,8.14" transform="translate(-26.632 -83.463)" fill="#0078e1"/><path d="M26.545,386.034a4.2,4.2,0,1,0,.733-1.477,4.209,4.209,0,0,0-.733,1.477" transform="translate(-6.523 -94.627)" fill="#0078e1"/><path d="M38.627,388.437a6.02,6.02,0,0,1,7.379-4.2l10.731,2.954a5.971,5.971,0,0,1,3.74,2.954l14.159,3.913a4.522,4.522,0,1,1-2.381,8.725l-14.184-3.964a6,6,0,0,1-4.687.661l-10.757-2.929a6.021,6.021,0,0,1-4.2-7.379l.2-.723Z" transform="translate(-9.445 -94.899)" fill="#0078e1"/><path d="M85.81,397.351a4.522,4.522,0,1,1-2.381,8.725" transform="translate(-20.617 -98.192)" fill="#0078e1"/><path d="M9.674,447.474a4.214,4.214,0,1,0,1.97-2.542,4.225,4.225,0,0,0-1.97,2.542" transform="translate(-2.353 -109.813)" fill="#0078e1"/><path d="M21.773,449.874a6.019,6.019,0,0,1,7.379-4.2l10.731,2.941a5.979,5.979,0,0,1,3.74,2.966l14.209,3.9a4.524,4.524,0,1,1-2.393,8.725l-14.209-3.9a5.987,5.987,0,0,1-4.687.66l-10.731-2.941a6.008,6.008,0,0,1-4.188-7.379l.187-.723Z" transform="translate(-5.291 -110.082)" fill="#0078e1"/><path d="M68.952,458.772a4.524,4.524,0,1,1-2.393,8.726" transform="translate(-16.448 -113.371)" fill="#0078e1"/><path d="M.414,522.557a4.224,4.224,0,1,0,1.5-2.863,4.233,4.233,0,0,0-1.5,2.863" transform="translate(-0.098 -128.184)" fill="#0078e1"/><path d="M12.891,522.637a6.007,6.007,0,0,1,6.494-5.447l11.081,1a6.012,6.012,0,0,1,4.188,2.256L49.3,521.752a4.505,4.505,0,1,1-.81,8.974L33.843,529.4a5.951,5.951,0,0,1-4.487,1.483l-11.081-1a6,6,0,0,1-5.447-6.506l.075-.748Z" transform="translate(-3.164 -127.802)" fill="#0078e1"/><path d="M61.016,523.273a4.5,4.5,0,0,1-.8,8.961" transform="translate(-14.881 -129.311)" fill="#0078e1"/><path d="M.017,598.087a4.207,4.207,0,1,0,.175-1.637,4.222,4.222,0,0,0-.175,1.637" transform="translate(0 -146.664)" fill="#0078e1"/><path d="M12.433,595.533a6.021,6.021,0,0,1,5.447-6.469l11.081-.984a5.946,5.946,0,0,1,4.5,1.47l14.671-1.309a4.5,4.5,0,0,1,.81,8.961l-14.7,1.272a6,6,0,0,1-4.163,2.256L19,601.716a5.981,5.981,0,0,1-6.506-5.434l-.075-.748Z" transform="translate(-3.068 -145.32)" fill="#0078e1"/><path d="M59.854,588.233a4.5,4.5,0,0,1,.81,8.961" transform="translate(-14.791 -145.361)" fill="#0078e1"/><path d="M8.534,673.3a4.238,4.238,0,1,0,.41-3.2,4.227,4.227,0,0,0-.41,3.2" transform="translate(-2.073 -165.068)" fill="#0078e1"/><path d="M20.431,666.759a6.008,6.008,0,0,1,4.2-7.379l10.732-2.941a5.994,5.994,0,0,1,4.687.66l14.209-3.9a4.522,4.522,0,0,1,2.381,8.725l-14.235,3.852a6.022,6.022,0,0,1-3.739,2.966l-10.719,2.941a6.007,6.007,0,0,1-7.316-4.238l-.2-.723Z" transform="translate(-4.996 -161.379)" fill="#0078e1"/><path d="M65.434,653.2a4.522,4.522,0,0,1,2.381,8.725" transform="translate(-16.17 -161.379)" fill="#0078e1"/><path d="M25.4,734.74a4.238,4.238,0,1,0,.41-3.2,4.229,4.229,0,0,0-.41,3.2" transform="translate(-6.242 -180.251)" fill="#0078e1"/><path d="M37.3,728.192a5.994,5.994,0,0,1,4.2-7.378l10.719-2.942a5.958,5.958,0,0,1,4.7.661l14.21-3.914a4.522,4.522,0,0,1,2.381,8.725l-14.209,3.9a5.96,5.96,0,0,1-3.74,2.954L44.83,733.154a6,6,0,0,1-7.367-4.2l-.2-.723Z" transform="translate(-9.165 -176.558)" fill="#0078e1"/><path d="M82.3,714.636a4.522,4.522,0,1,1,2.381,8.725" transform="translate(-20.339 -176.562)" fill="#0078e1"/><path d="M53.628,804.59a4.225,4.225,0,1,0-.164-3.222,4.229,4.229,0,0,0,.164,3.222" transform="translate(-13.152 -197.34)" fill="#0078e1"/><path d="M64.646,794.3a6,6,0,0,1,2.842-7.99l10.058-4.774a5.95,5.95,0,0,1,4.724-.175l13.349-6.319a4.5,4.5,0,1,1,3.864,8.139L86.172,789.5a6.007,6.007,0,0,1-3.128,3.553L73,797.823a6,6,0,0,1-7.99-2.841l-.324-.686Z" transform="translate(-15.832 -191.421)" fill="#0078e1"/><path d="M105.978,775.039a4.5,4.5,0,1,1,3.864,8.139" transform="translate(-26.19 -191.421)" fill="#0078e1"/><path d="M90.1,870.314a4.238,4.238,0,1,0-.7-3.143,4.207,4.207,0,0,0,.7,3.143" transform="translate(-22.078 -213.432)" fill="#0078e1"/><path d="M99.906,856.593a6,6,0,0,1,1.446-8.364l9.086-6.419a5.956,5.956,0,0,1,4.637-.985l12.028-8.5a4.5,4.5,0,0,1,5.2,7.354l-12.028,8.5a5.962,5.962,0,0,1-2.493,4.038l-9.074,6.406a6.009,6.009,0,0,1-8.364-1.446l-.436-.611Z" transform="translate(-24.418 -205.481)" fill="#0078e1"/><path d="M136.391,832.325a4.5,4.5,0,0,1,5.2,7.354" transform="translate(-33.706 -205.481)" fill="#0078e1"/><path d="M130.483,926.739a4.21,4.21,0,1,0-.8-1.44,4.209,4.209,0,0,0,.8,1.44" transform="translate(-31.999 -227.303)" fill="#0078e1"/><path d="M139.6,911.587a6.019,6.019,0,0,1,.723-8.463l8.513-7.167a6.012,6.012,0,0,1,4.525-1.371l11.218-9.5a4.512,4.512,0,0,1,5.808,6.893l-11.218,9.5a5.988,5.988,0,0,1-2.119,4.225l-8.513,7.179a6.008,6.008,0,0,1-8.451-.723Z" transform="translate(-34.152 -218.496)" fill="#0078e1"/><path d="M173.309,885.088a4.512,4.512,0,0,1,5.808,6.893" transform="translate(-42.829 -218.496)" fill="#0078e1"/><path d="M179.458,976.088a4.211,4.211,0,1,0-.918-1.369,4.211,4.211,0,0,0,.918,1.369" transform="translate(-44.042 -239.434)" fill="#0078e1"/><path d="M187.766,959.415a6.007,6.007,0,0,1,0-8.488l7.865-7.865a5.973,5.973,0,0,1,4.4-1.757l10.42-10.421a4.5,4.5,0,0,1,6.369,6.369l-10.42,10.42a5.972,5.972,0,0,1-1.758,4.4l-7.84,7.865a6.008,6.008,0,0,1-8.489,0l-.523-.523Z" transform="translate(-45.968 -229.716)" fill="#0078e1"/><path d="M218.556,930.884a4.5,4.5,0,0,1,6.369,6.369" transform="translate(-54.011 -229.716)" fill="#0078e1"/><path d="M238.067,1022.819a4.216,4.216,0,1,0-1.726-2.733,4.155,4.155,0,0,0,.591,1.536,4.207,4.207,0,0,0,1.135,1.2" transform="translate(-58.391 -250.864)" fill="#0078e1"/><path d="M244.626,1003.722a6,6,0,0,1-1.433-8.365l6.419-9.089a5.984,5.984,0,0,1,4.05-2.493l8.5-12.028a4.5,4.5,0,1,1,7.341,5.2L261,988.974a5.991,5.991,0,0,1-.973,4.638L253.6,1002.7a6,6,0,0,1-8.364,1.43l-.611-.437Z" transform="translate(-59.826 -239.643)" fill="#0078e1"/><path d="M268.752,971.783a4.5,4.5,0,0,1,7.354,5.2" transform="translate(-66.416 -239.678)" fill="#0078e1"/><path d="M302.082,1062.129a4.22,4.22,0,1,0-2.166-2.394,4.214,4.214,0,0,0,2.166,2.394" transform="translate(-74.056 -260.489)" fill="#0078e1"/><path d="M306.664,1041.107a5.981,5.981,0,0,1-3.084-3.4,5.993,5.993,0,0,1,.229-4.585l4.774-10.058a5.922,5.922,0,0,1,1.458-1.935,5.857,5.857,0,0,1,2.107-1.182l6.307-13.318a4.611,4.611,0,0,1,1.05-1.408,4.449,4.449,0,0,1,3.248-1.152,4.335,4.335,0,0,1,1.7.429,4.5,4.5,0,0,1,2.311,2.552,4.512,4.512,0,0,1-.174,3.448l-6.32,13.3a5.981,5.981,0,0,1-.174,4.736l-4.774,10.058a5.97,5.97,0,0,1-3.406,3.079,6.054,6.054,0,0,1-2.315.339,5.932,5.932,0,0,1-2.268-.572Z" transform="translate(-74.936 -248.125)" fill="#0078e1"/><path d="M323.469,1006.582a4.448,4.448,0,0,1,1.024-1.476,4.533,4.533,0,0,1,1.52-.964,4.587,4.587,0,0,1,1.773-.286,4.657,4.657,0,0,1,1.744.429,4.6,4.6,0,0,1,1.437,1.084,4.495,4.495,0,0,1,.629,5.059" transform="translate(-79.938 -248.075)" fill="#0078e1"/><path d="M365.128,1091.658a4.212,4.212,0,1,0-1.013-7.363,4.165,4.165,0,0,0-1.48,1.942,4.213,4.213,0,0,0,1.089,4.563,4.16,4.16,0,0,0,1.4.858" transform="translate(-89.551 -267.756)" fill="#0078e1"/><path d="M368.636,1069.894a5.978,5.978,0,0,1-2-1.22,5.984,5.984,0,0,1-1.917-4.178,6,6,0,0,1,.376-2.319l3.877-10.42a5.99,5.99,0,0,1,3.266-3.426l5.135-13.808a4.5,4.5,0,1,1,8.439,3.124l-5.135,13.762a6.045,6.045,0,0,1,.249,4.736l-3.877,10.435a5.988,5.988,0,0,1-7.7,3.524l-.7-.256Z" transform="translate(-90.131 -254.928)" fill="#0078e1"/><path d="M381.529,1034.523a4.5,4.5,0,0,1,2.341-2.53,4.613,4.613,0,0,1,1.708-.407,4.515,4.515,0,0,1,3.229,1.2,4.585,4.585,0,0,1,1.029,1.423,4.5,4.5,0,0,1,.13,3.441" transform="translate(-94.286 -254.927)" fill="#0078e1"/><path d="M432.212,1110.354a4.193,4.193,0,0,0,2.454-.06,4.229,4.229,0,1,0-5.408-5.12,4.2,4.2,0,0,0,.4,3.2,4.323,4.323,0,0,0,1.08,1.25,4.169,4.169,0,0,0,1.474.73" transform="translate(-106.043 -272.342)" fill="#0078e1"/><path d="M434.613,1088.033a5.826,5.826,0,0,1-2.1-1.047,5.992,5.992,0,0,1-2.1-6.332l2.941-10.729a6.011,6.011,0,0,1,2.966-3.742l3.889-14.192a4.522,4.522,0,1,1,8.725,2.379l-3.9,14.207a5.963,5.963,0,0,1,.814,2.273,6.038,6.038,0,0,1-.153,2.417L442.74,1084a5.992,5.992,0,0,1-5.034,4.359,5.948,5.948,0,0,1-2.332-.173l-.723-.188Z" transform="translate(-106.313 -259.146)" fill="#0078e1"/><path d="M443.512,1051.975a4.524,4.524,0,0,1,8.725,2.394" transform="translate(-109.603 -259.144)" fill="#0078e1"/><path d="M506.818,1122.226a4.269,4.269,0,0,0,2.393-.5,4.214,4.214,0,1,0-6.044-2.439,4.208,4.208,0,0,0,2.071,2.477,4.3,4.3,0,0,0,1.58.467" transform="translate(-124.298 -275.248)" fill="#0078e1"/><path d="M506.9,1099.212a6,6,0,0,1-5.435-6.52l.985-11.075a5.973,5.973,0,0,1,2.256-4.163l1.321-14.674a4.5,4.5,0,0,1,1.566-3.117,4.7,4.7,0,0,1,1.554-.866,4.489,4.489,0,0,1,4.85,1.438,4.508,4.508,0,0,1,.992,3.343l-1.308,14.681a5.95,5.95,0,0,1,1.47,4.5l-.985,11.082a6.009,6.009,0,0,1-6.518,5.436H506.9Z" transform="translate(-123.919 -261.6)" fill="#0078e1"/><path d="M507.533,1062.725a4.512,4.512,0,0,1,3.131-3.945,4.52,4.52,0,0,1,4.83,1.43,4.561,4.561,0,0,1,.834,1.566,4.5,4.5,0,0,1,.166,1.762" transform="translate(-125.425 -261.597)" fill="#0078e1"/><path d="M582.361,1125.257a4.24,4.24,0,0,0,2.262-.926,4.215,4.215,0,0,0-4.6-7.009,4.261,4.261,0,0,0-1.744,1.716,4.2,4.2,0,0,0,1,5.255,4.245,4.245,0,0,0,3.085.964" transform="translate(-142.779 -275.998)" fill="#0078e1"/><path d="M579.778,1102.322a6.083,6.083,0,0,1-2.326-.249,5.989,5.989,0,0,1-4.18-5.187l-1-11.082a5.964,5.964,0,0,1,1.483-4.5l-1.321-14.681a4.5,4.5,0,0,1,8.962-.8l1.271,14.673a5.987,5.987,0,0,1,2.256,4.171l1,11.082a6,6,0,0,1-5.446,6.5l-.748.068Z" transform="translate(-141.418 -262.398)" fill="#0078e1"/><path d="M572.489,1066.559a4.488,4.488,0,0,1,.159-1.769,4.5,4.5,0,0,1,5.683-3.011,4.688,4.688,0,0,1,1.554.866,4.5,4.5,0,0,1,1.567,3.117" transform="translate(-141.47 -262.336)" fill="#0078e1"/><path d="M647.826,1119.351a4.223,4.223,0,0,0,3.473-3.162,4.222,4.222,0,1,0-7.719,1.182,4.148,4.148,0,0,0,1.11,1.212,4.229,4.229,0,0,0,1.491.7,4.171,4.171,0,0,0,1.644.068" transform="translate(-158.895 -274.541)" fill="#0078e1"/><path d="M643.831,1096.573a6.017,6.017,0,0,1-6.847-5.029l-1.677-10.992a5.959,5.959,0,0,1,1.186-4.585l-2.225-14.561a4.5,4.5,0,0,1,2.089-4.585,4.515,4.515,0,0,1,5.033.226,4.6,4.6,0,0,1,1.185,1.318,4.515,4.515,0,0,1,.586,1.671L645.4,1074.6a6.03,6.03,0,0,1,1.669,1.754,5.954,5.954,0,0,1,.843,2.266l1.677,10.992a6,6,0,0,1-.1,2.341,6.085,6.085,0,0,1-.989,2.123,5.984,5.984,0,0,1-1.726,1.574,6.061,6.061,0,0,1-2.2.8Z" transform="translate(-156.728 -261.001)" fill="#0078e1"/><path d="M634.283,1061.406a4.5,4.5,0,0,1,7.122-4.359,4.588,4.588,0,0,1,1.186,1.318,4.53,4.53,0,0,1,.586,1.671" transform="translate(-156.732 -261.001)" fill="#0078e1"/><path d="M719.476,1102.494a4.215,4.215,0,1,0-4.461-1.476,4.23,4.23,0,0,0,4.461,1.476" transform="translate(-176.479 -270.4)" fill="#0078e1"/><path d="M712.933,1080.32a5.981,5.981,0,0,1-7.379-4.2l-2.941-10.721a5.95,5.95,0,0,1,.648-4.7l-3.9-14.2a4.523,4.523,0,1,1,8.725-2.387l3.9,14.207a6.008,6.008,0,0,1,2.954,3.742l2.941,10.729a5.961,5.961,0,0,1-2.1,6.317,5.8,5.8,0,0,1-2.091,1.047l-.723.2Z" transform="translate(-172.79 -257.201)" fill="#0078e1"/><path d="M699.359,1046.492a4.522,4.522,0,1,1,8.725-2.379" transform="translate(-172.79 -257.199)" fill="#0078e1"/><path d="M790.243,1076.708a4.212,4.212,0,1,0-4.943-6.625,4.253,4.253,0,0,0-1.041,2.214,4.2,4.2,0,0,0,.363,2.417,4.14,4.14,0,0,0,.98,1.325,4.056,4.056,0,0,0,1.415.843,4.149,4.149,0,0,0,1.631.241,4.2,4.2,0,0,0,1.6-.414" transform="translate(-193.8 -264.099)" fill="#0078e1"/><path d="M779.924,1055.963a6.02,6.02,0,0,1-8-2.854l-4.773-10.043a5.97,5.97,0,0,1-.163-4.735l-6.319-13.311a4.518,4.518,0,0,1-.272-3.516,4.5,4.5,0,0,1,4.081-3.057,4.59,4.59,0,0,1,1.773.286,4.489,4.489,0,0,1,2.544,2.432l6.32,13.288a5.963,5.963,0,0,1,3.565,3.117l4.761,10.058a6,6,0,0,1-2.842,7.988l-.673.324Z" transform="translate(-187.855 -251.68)" fill="#0078e1"/><path d="M760.682,1025.049a4.523,4.523,0,0,1-.453-1.716,4.471,4.471,0,0,1,.242-1.747,4.519,4.519,0,0,1,.9-1.528,4.47,4.47,0,0,1,1.418-1.054,4.527,4.527,0,0,1,1.716-.437,4.5,4.5,0,0,1,4.3,2.612" transform="translate(-187.87 -251.71)" fill="#0078e1"/><path d="M857.2,1042.437a4.229,4.229,0,0,0-4.156-7.318,4.269,4.269,0,0,0-1.855,1.611,4.227,4.227,0,0,0,6.011,5.707" transform="translate(-210.191 -255.711)" fill="#0078e1"/><path d="M843.519,1023.784a6.04,6.04,0,0,1-2.138.956,6.03,6.03,0,0,1-4.527-.776,6.055,6.055,0,0,1-1.7-1.611l-6.419-9.087a5.992,5.992,0,0,1-.972-4.638L819.251,996.6a4.5,4.5,0,0,1,7.354-5.2l8.5,12.04a6,6,0,0,1,4.05,2.492l6.419,9.087a5.992,5.992,0,0,1-1.433,8.349l-.623.437Z" transform="translate(-202.254 -244.527)" fill="#0078e1"/><path d="M819.251,996.6a4.5,4.5,0,0,1,7.354-5.2" transform="translate(-202.254 -244.527)" fill="#0078e1"/><path d="M909.219,1005.728a4.21,4.21,0,1,0-4.69.128,4.185,4.185,0,0,0,3.185.55,4.265,4.265,0,0,0,1.5-.678" transform="translate(-223.046 -246.641)" fill="#0078e1"/><path d="M895.537,987.052a6.009,6.009,0,0,1-8.364-1.433l-6.469-9.124a5.983,5.983,0,0,1-.972-4.637l-8.514-12.028a4.5,4.5,0,1,1,7.354-5.2l8.513,12.028a6.03,6.03,0,0,1,4.038,2.493l6.42,9.086a6,6,0,0,1-1.433,8.364l-.611.436Z" transform="translate(-215.097 -235.44)" fill="#0078e1"/><path d="M871.269,959.829a4.5,4.5,0,1,1,7.354-5.2" transform="translate(-215.109 -235.44)" fill="#0078e1"/><path d="M964.586,955.017a4.211,4.211,0,1,0-1.369.918,4.21,4.21,0,0,0,1.369-.918" transform="translate(-236.596 -234.23)" fill="#0078e1"/><path d="M947.978,938.963a6.007,6.007,0,0,1-8.488,0l-7.865-7.864a5.964,5.964,0,0,1-1.745-4.4L919.46,916.34a4.5,4.5,0,0,1,6.357-6.369l10.421,10.42a5.992,5.992,0,0,1,4.412,1.758l7.865,7.865a6.008,6.008,0,0,1,0,8.489l-.536.523Z" transform="translate(-226.905 -224.557)" fill="#0078e1"/><path d="M919.46,916.34a4.5,4.5,0,0,1,6.357-6.369" transform="translate(-226.905 -224.557)" fill="#0078e1"/><path d="M1013.3,898.02a4.225,4.225,0,0,0-6.354-5.508,4.177,4.177,0,0,0-1.212,2.134,4.238,4.238,0,0,0,3.192,5.057,4.182,4.182,0,0,0,1.641.044,4.24,4.24,0,0,0,1.543-.591,4.179,4.179,0,0,0,1.19-1.135" transform="translate(-248.517 -220.272)" fill="#0078e1"/><path d="M994.209,884.968a6,6,0,0,1-8.367,1.433l-9.086-6.419a5.962,5.962,0,0,1-2.493-4.038l-12.028-8.5a4.5,4.5,0,0,1,5.2-7.354l12.028,8.5a5.941,5.941,0,0,1,4.637.985l9.087,6.419a6,6,0,0,1,1.43,8.364l-.437.611Z" transform="translate(-237.323 -212.342)" fill="#0078e1"/><path d="M962.233,867.4a4.5,4.5,0,1,1,5.2-7.341" transform="translate(-237.296 -212.316)" fill="#0078e1"/><path d="M1054.82,835.3a4.23,4.23,0,0,0-2.786-5.912,4.231,4.231,0,0,0-2.454.118,4.28,4.28,0,0,0-1.973,1.461,4.227,4.227,0,1,0,7.213,4.333" transform="translate(-258.687 -204.928)" fill="#0078e1"/><path d="M1033.789,825.692a5.987,5.987,0,0,1-5.714,3.415,6.017,6.017,0,0,1-2.274-.573l-10.058-4.774a6.048,6.048,0,0,1-1.927-1.453,5.952,5.952,0,0,1-1.19-2.1l-13.311-6.32a4.5,4.5,0,1,1,3.862-8.139l13.318,6.319a5.941,5.941,0,0,1,4.721.175l10.058,4.774a5.992,5.992,0,0,1,3.418,5.721,6.092,6.092,0,0,1-.58,2.268Z" transform="translate(-246.321 -199.01)" fill="#0078e1"/><path d="M999.3,813.868a4.5,4.5,0,0,1-1.122-7.437,4.487,4.487,0,0,1,3.275-1.142,4.487,4.487,0,0,1,1.709.453" transform="translate(-246.306 -199.002)" fill="#0078e1"/><path d="M1082.145,777.812a4.216,4.216,0,0,0-7.2-4.311,4.232,4.232,0,0,0-.233,4.672,4.216,4.216,0,0,0,5.037,1.814,4.275,4.275,0,0,0,1.415-.849,4.362,4.362,0,0,0,.979-1.327" transform="translate(-265.443 -190.729)" fill="#0078e1"/><path d="M1061.123,768.133a6.02,6.02,0,0,1-8,2.854l-10.051-4.774a6.008,6.008,0,0,1-1.927-1.46,5.879,5.879,0,0,1-1.2-2.1l-13.311-6.307a4.5,4.5,0,0,1,3.862-8.139l13.311,6.32a5.977,5.977,0,0,1,4.736.175l10.051,4.774a5.991,5.991,0,0,1,1.875,1.394,5.886,5.886,0,0,1,1.2,2.009,5.963,5.963,0,0,1-.226,4.587Z" transform="translate(-253.071 -184.789)" fill="#0078e1"/><path d="M1026.62,756.32a4.5,4.5,0,0,1-2.613-4.3,4.477,4.477,0,0,1,1.491-3.133,4.39,4.39,0,0,1,1.521-.9,4.5,4.5,0,0,1,3.463.209" transform="translate(-253.057 -184.781)" fill="#0078e1"/><path d="M1105.495,706.079a4.257,4.257,0,0,0-.068-2.454,4.217,4.217,0,1,0,.068,2.454" transform="translate(-271.145 -173.165)" fill="#0078e1"/><path d="M1083.069,700.246a6,6,0,0,1-2.816,3.632,6.006,6.006,0,0,1-4.562.568l-10.729-2.941a5.96,5.96,0,0,1-3.742-2.966l-14.207-3.9a4.445,4.445,0,0,1-1.581-.787,4.522,4.522,0,0,1,3.96-7.938l14.207,3.9a6,6,0,0,1,4.69-.66l10.728,2.953a6.014,6.014,0,0,1,3.629,2.814,6.088,6.088,0,0,1,.738,2.219,5.956,5.956,0,0,1-.166,2.334l-.2.723Z" transform="translate(-257.92 -169.463)" fill="#0078e1"/><path d="M1047.114,694.637a4.53,4.53,0,0,1-2.74-2.119,4.54,4.54,0,0,1-.557-1.674,4.523,4.523,0,0,1,3.915-5.056,4.547,4.547,0,0,1,1.762.124" transform="translate(-257.945 -169.463)" fill="#0078e1"/><path d="M1119.96,631.946a4.2,4.2,0,0,0-.5-2.393,4.255,4.255,0,0,0-1.747-1.712,4.213,4.213,0,0,0-5.97,4.994,4.212,4.212,0,0,0,5.278,2.761,4.207,4.207,0,0,0,2.477-2.071,4.151,4.151,0,0,0,.459-1.58" transform="translate(-274.694 -155.034)" fill="#0078e1"/><path d="M1096.93,630.141a6.026,6.026,0,0,1-6.52,5.447l-11.082-1a5.919,5.919,0,0,1-2.311-.7,6,6,0,0,1-1.852-1.559l-14.681-1.246a4.506,4.506,0,1,1,.813-8.975l14.666,1.321a5.98,5.98,0,0,1,4.5-1.483l11.082,1a5.986,5.986,0,0,1,2.244.656,6.066,6.066,0,0,1,1.829,1.467,5.975,5.975,0,0,1,1.122,2.054,6.091,6.091,0,0,1,.248,2.329v.748Z" transform="translate(-261.06 -153.691)" fill="#0078e1"/><path d="M1060.464,631.046a4.462,4.462,0,0,1-1.7-.48,4.456,4.456,0,0,1-2.244-2.652,4.5,4.5,0,0,1-.2-1.76,4.623,4.623,0,0,1,.5-1.7,4.5,4.5,0,0,1,4.449-2.372" transform="translate(-261.041 -153.724)" fill="#0078e1"/><path d="M1125.64,568.505a4.22,4.22,0,0,0-2.251-4.1,4.212,4.212,0,1,0-.685,7.755,4.211,4.211,0,0,0,2.477-2.07,4.158,4.158,0,0,0,.459-1.581" transform="translate(-276.098 -139.356)" fill="#0078e1"/><path d="M1102.562,566.664a6.007,6.007,0,0,1-6.52,5.447l-11.082-1a5.984,5.984,0,0,1-4.163-2.256l-14.666-1.308a4.5,4.5,0,1,1,.8-8.974l14.681,1.321a5.986,5.986,0,0,1,4.495-1.484l11.082,1a6,6,0,0,1,5.436,6.506Z" transform="translate(-262.453 -137.989)" fill="#0078e1"/><path d="M1066.181,567.6a4.508,4.508,0,0,1-3.057-1.6,4.376,4.376,0,0,1-.843-1.542,4.539,4.539,0,0,1,.3-3.435,4.52,4.52,0,0,1,1.107-1.37,4.455,4.455,0,0,1,1.536-.843,4.538,4.538,0,0,1,1.754-.189" transform="translate(-262.466 -138.044)" fill="#0078e1"/></g></g></svg>