<svg xmlns="http://www.w3.org/2000/svg" xmlns:xlink="http://www.w3.org/1999/xlink" width="44.998" height="74.789" viewBox="0 0 44.998 74.789"><defs><clipPath id="a"><rect width="44.998" height="74.789" fill="#0077db"/></clipPath></defs><g transform="translate(-217.785 -3434)"><g transform="translate(217.785 3434)"><rect width="10.68" height="13.158" transform="translate(16.717 61.632)" fill="#0077db"/><rect width="27.596" height="3.503" transform="translate(8.684 0)" fill="#0077db"/><g clip-path="url(#a)"><path d="M45,96.068V28.77H0v67.3H12.731V80.916a1.981,1.981,0,0,1,1.994-1.994H29.391a1.981,1.981,0,0,1,1.994,1.994V96.068ZM10.85,73.2H5.7a1.994,1.994,0,1,1,0-3.987H10.85a1.994,1.994,0,1,1,0,3.987m0-11.392H5.7a1.994,1.994,0,1,1,0-3.987H10.85a1.994,1.994,0,1,1,0,3.987m0-11.392H5.7a1.994,1.994,0,1,1,0-3.987H10.85a1.994,1.994,0,1,1,0,3.987m0-11.164H5.7a1.994,1.994,0,0,1,0-3.987H10.85a1.994,1.994,0,0,1,0,3.987M25.091,73.2H19.936a1.994,1.994,0,1,1,0-3.987h5.155a1.994,1.994,0,1,1,0,3.987m0-11.392H19.936a1.994,1.994,0,1,1,0-3.987h5.155a1.994,1.994,0,1,1,0,3.987m0-11.392H19.936a1.994,1.994,0,0,1,0-3.987h5.155a1.994,1.994,0,0,1,0,3.987m0-11.164H19.936a1.994,1.994,0,0,1,0-3.987h5.155a1.994,1.994,0,0,1,0,3.987m9.057-3.987H39.3a1.994,1.994,0,1,1,0,3.987H34.147a1.981,1.981,0,0,1-1.994-1.994,2.018,2.018,0,0,1,1.994-1.994m0,11.164H39.3a1.994,1.994,0,1,1,0,3.987H34.147a1.994,1.994,0,1,1,0-3.987m0,11.392H39.3a1.994,1.994,0,1,1,0,3.987H34.147a1.994,1.994,0,1,1,0-3.987m0,11.392H39.3a1.994,1.994,0,1,1,0,3.987H34.147a1.994,1.994,0,1,1,0-3.987" transform="translate(0 -21.279)" fill="#0077db"/></g></g></g></svg>