<svg xmlns="http://www.w3.org/2000/svg" xmlns:xlink="http://www.w3.org/1999/xlink" width="56.156" height="72" viewBox="0 0 56.156 72"><defs><clipPath id="a"><rect width="56.156" height="72" fill="none"/></clipPath></defs><g clip-path="url(#a)"><path d="M51.823,34.365a17.476,17.476,0,1,0,12.339,5.118,17.456,17.456,0,0,0-12.339-5.118m0,30.821a13.38,13.38,0,1,1,9.444-3.918,13.36,13.36,0,0,1-9.444,3.918" transform="translate(-23.746 -23.745)" fill="#0078e1"/><path d="M71.553,62.915a8.643,8.643,0,1,0,6.1,2.532A8.631,8.631,0,0,0,71.553,62.915Z" transform="translate(-43.476 -43.473)" fill="#0078e1"/><path d="M54.538,152.765l.314,24.792,9.527-6.841a2.365,2.365,0,0,1,2.76,0l9.509,6.828.208-24.707a22.121,22.121,0,0,1-22.317-.071Z" transform="translate(-37.685 -112.557)" fill="#0078e1"/><path d="M28.077,0A28.107,28.107,0,1,0,47.922,8.231,28.074,28.074,0,0,0,28.077,0m0,49.57a21.52,21.52,0,1,1,15.189-6.3,21.487,21.487,0,0,1-15.189,6.3" fill="#0078e1"/><path d="M113.253,94.9,90.648,90.894l10.358,20.488,4.27-5.777,8.241,6.124,3.678-4.951-8.241-6.123Z" transform="translate(-62.636 -62.806)" fill="#fff"/></g></svg>